{"title":"Birth of the Dragon 2017 720p WEB-DL X264 AC3 5.1-SeeHD","magnet":"magnet:?xt=urn:btih:9573314533f0cd576cacd1929a4c55cc89a270b9&dn=Birth+of+the+Dragon+2017+720p+WEB-DL+X264+AC3+5.1-SeeHD&tr=udp%3A%2F%2Ftracker.leechers-paradise.org%3A6969&tr=udp%3A%2F%2Fzer0day.ch%3A1337&tr=udp%3A%2F%2Fopen.demonii.com%3A1337&tr=udp%3A%2F%2Ftracker.coppersurfer.tk%3A6969&tr=udp%3A%2F%2Fexodus.desync.com%3A6969","uploader":"makintos13","categoryP":"video","categoryS":"hd___movies","size":"3197560392","seeders":"98","leechers":"275","description":"screens:\r\n <a href=\"\nhttps://imgmak.com/kjQ\" rel=\"nofollow\" target=\"_NEW\">\nhttps://imgmak.com/kjQ</a>\r\n <a href=\"\nhttps://imgmak.com/kjS\" rel=\"nofollow\" target=\"_NEW\">\nhttps://imgmak.com/kjS</a>\r\n <a href=\"\nhttps://imgmak.com/kjZ\" rel=\"nofollow\" target=\"_NEW\">\nhttps://imgmak.com/kjZ</a>\r\n <a href=\"\nhttps://imgmak.com/kjc\" rel=\"nofollow\" target=\"_NEW\">\nhttps://imgmak.com/kjc</a>\r\n <a href=\"\nhttps://imgmak.com/kjn\" rel=\"nofollow\" target=\"_NEW\">\nhttps://imgmak.com/kjn</a>\r\n <a href=\"\nhttps://imgmak.com/kjr\" rel=\"nofollow\" target=\"_NEW\">\nhttps://imgmak.com/kjr</a>\r\n <a href=\"\nhttps://imgmak.com/kjB\" rel=\"nofollow\" target=\"_NEW\">\nhttps://imgmak.com/kjB</a>\r\n <a href=\"\nhttps://imgmak.com/kjI\" rel=\"nofollow\" target=\"_NEW\">\nhttps://imgmak.com/kjI</a>\r\n\r\n\r\nFormat                      : Matroska\r\nFile size                   : 2.98 GiB\r\nDuration                    : 1 h 35 min\r\nOverall bit rate            : 4 460 kb/s\r\n\r\nVideo\r\nID                          : 2\r\nFormat                      : AVC\r\nFormat/Info                 : Advanced Video Codec\r\nFormat profile              : <a href=\"/cdn-cgi/l/email-protection\" class=\"__cf_email__\" data-cfemail=\"c588a4acab8589f6ebf4\">[email&#xA0;protected]</a>\r\nFormat settings, CABAC      : No\r\nFormat settings, ReFrames   : 2 frames\r\nCodec ID                    : V_MPEG4/ISO/AVC\r\nDuration                    : 1 h 35 min\r\nBit rate                    : 4 074 kb/s\r\nWidth                       : 1 280 pixels\r\nHeight                      : 528 pixels\r\nDisplay aspect ratio        : 2.40:1\r\nFrame rate mode             : Constant\r\nFrame rate                  : 23.976 FPS\r\nColor space                 : YUV\r\nChroma subsampling          : 4:2:0\r\nBit depth                   : 8 bits\r\nScan type                   : Progressive\r\nBits/(Pixel*Frame)          : 0.251\r\nStream size                 : 2.72 GiB (91%)\r\nLanguage                    : English\r\nDefault                     : Yes\r\nForced                      : No\r\n\r\nAudio\r\nID                          : 1\r\nFormat                      : AC-3\r\nFormat/Info                 : Audio Coding 3\r\nMode extension              : CM (complete main)\r\nFormat settings, Endianness : Big\r\nCodec ID                    : A_AC3\r\nDuration                    : 1 h 35 min\r\nBit rate mode               : Constant\r\nBit rate                    : 384 kb/s\r\nChannel(s)                  : 6 channels\r\nChannel positions           : Front: L C R, Side: L R, LFE\r\nSampling rate               : 48.0 kHz\r\nFrame rate                  : 31.250 FPS (1536 spf)\r\nBit depth                   : 16 bits\r\nCompression mode            : Lossy\r\nStream size                 : 263 MiB (9%)\r\nLanguage                    : English\r\nDefault                     : Yes\r\nForced                      : No","last_updated":"2017-11-07T12:06:49.240Z","parsed":{"xt":"urn:btih:9573314533f0cd576cacd1929a4c55cc89a270b9","dn":"Birth of the Dragon 2017 720p WEB-DL X264 AC3 5.1-SeeHD","tr":["udp://exodus.desync.com:6969","udp://open.demonii.com:1337","udp://tracker.coppersurfer.tk:6969","udp://tracker.leechers-paradise.org:6969","udp://zer0day.ch:1337"],"infoHash":"9573314533f0cd576cacd1929a4c55cc89a270b9","infoHashBuffer":{"type":"Buffer","data":[149,115,49,69,51,240,205,87,108,172,209,146,154,76,85,204,137,162,112,185]},"name":"Birth of the Dragon 2017 720p WEB-DL X264 AC3 5.1-SeeHD","announce":["udp://exodus.desync.com:6969","udp://open.demonii.com:1337","udp://tracker.coppersurfer.tk:6969","udp://tracker.leechers-paradise.org:6969","udp://zer0day.ch:1337"],"urlList":[]}}